<svg width="98" height="66" viewBox="0 0 98 66" fill="none" xmlns="http://www.w3.org/2000/svg">
<path d="M7.96572 44.8414H2.77848C2.59819 45.8411 2.29171 48.2045 2.50805 49.6599C2.72439 51.1153 3.23738 52.8558 3.46683 53.5442L3.90935 54.6013L5.08938 56.6418L6.98236 58.7806L9.51452 60.649L12.4155 61.9765L15.0459 62.6895L17.4552 62.9845C19.2744 62.9763 23.203 62.8615 24.3633 62.4682C25.8138 61.9765 30.3619 60.1573 32.009 58.0676C33.3267 56.3959 33.7294 55.8141 33.8523 55.6584L35.7945 56.8876C35.5159 57.4203 34.8558 58.5642 34.1478 59.2723C33.2628 60.1573 32.009 61.6323 29.8948 62.6895C27.7805 63.7466 27.338 64.017 24.3633 64.902C21.9836 65.6101 17.6027 65.4429 15.7097 65.2708C14.1445 64.9348 10.7486 64.1055 9.68661 63.4762C8.35907 62.6895 4.32728 60.354 2.13929 56.6418C0.388901 53.672 -0.0159177 49.6189 0.000471692 47.9636L0.565915 43.5139L1.64762 42.383L8.92451 42.3584L9.29327 44.1039L7.96572 44.8414Z" fill="#FA03FC"/>
<path d="M22.1264 55.2159C24.9191 53.4262 25.707 49.7828 25.7152 48.1602L23.3059 48.1848C23.1174 49.0862 22.5148 51.1693 21.4134 52.5854C20.0367 54.3554 17.0374 54.5767 14.874 54.3063C13.1433 54.0899 11.6453 52.7411 11.1127 52.0937C10.8832 51.6922 10.3457 50.5941 10.031 49.414C9.7163 48.234 9.96542 45.8084 10.1293 44.743L10.3014 43.4893L7.64631 44.866L7.35131 47.3981C7.30214 48.8322 7.7299 52.2215 9.8343 54.3063C11.9387 56.391 14.6528 56.9122 15.7837 56.863C16.7424 57.0843 19.3336 57.0056 22.1264 55.2159Z" fill="#FA03FC"/>
<path d="M73.1379 64.1646L70.8516 63.1812L94.6244 2.28635L97.427 1.54883L73.1379 64.1646Z" fill="#08CCFC"/>
<path d="M71.0239 63.1812H57.2076H56.8389L56.2734 65.3937L72.0073 65.4675V63.1812H71.0239Z" fill="#08CCFC"/>
<path d="M55.29 64.7053L38.3516 23.4286L40.5395 22.5436L57.2567 63.2057L55.29 64.7053Z" fill="#08CCFC"/>
<path d="M80.8811 0.95874L62.0742 51.5283L63.9672 53.0279L82.8478 2.31087L80.8811 0.95874Z" fill="#08CCFC"/>
<rect x="24.5117" width="17.7989" height="2.31091" fill="#FA03FC"/>
<circle cx="24.486" cy="1.15589" r="1.15589" fill="#FA03FC"/>
<circle cx="42.2848" cy="1.15589" r="1.15589" fill="#D9D9D9"/>
<circle cx="42.2606" cy="1.18048" r="1.18048" fill="#FA03FC"/>
<circle cx="9.14612" cy="43.4897" r="1.15589" fill="#FA03FC"/>
<circle cx="1.72229" cy="43.5388" r="1.15589" fill="#FA03FC"/>
<circle cx="34.7633" cy="56.3718" r="1.15589" fill="#FA03FC"/>
<circle cx="82.0133" cy="1.15589" r="1.15589" fill="#08CCFC"/>
<circle cx="62.9371" cy="52.4876" r="1.15589" fill="#08CCFC"/>
<circle cx="56.3473" cy="64.2388" r="1.15589" fill="#08CCFC"/>
<circle cx="71.7857" cy="64.0908" r="1.35213" fill="#08CCFC"/>
<circle cx="96.3707" cy="1.15589" r="1.15589" fill="#08CCFC"/>
<path d="M61.805 52.7329L41.5723 2.31093L43.3177 0.737549L62.8867 49.1682L61.805 52.7329Z" fill="#FA03FC"/>
<rect x="82.2832" width="14.1113" height="2.31091" fill="#08CCFC"/>
<circle cx="39.4578" cy="23.0112" r="1.18048" fill="#08CCFC"/>
<path d="M23.3066 48.1848L23.3312 1.1554L25.7159 2.31085V48.1848H23.3066Z" fill="#FA03FC"/>
</svg>
